<svg width="20" height="20" viewBox="0 0 20 20" fill="none" xmlns="http://www.w3.org/2000/svg">
<path d="M5.28613 0.449219C6.67572 0.449219 7.91864 1.31149 8.40332 2.61133L8.91797 3.99121C9.53428 5.64456 11.3768 6.48613 13.0332 5.87109C13.2007 5.80889 13.3628 5.7327 13.5176 5.64355L14.7842 4.91406C14.8856 4.85564 14.9912 4.80986 15.0986 4.77734C15.3674 4.66262 15.6636 4.59964 15.9746 4.59961C17.2033 4.59961 18.2 5.59055 18.2002 6.81348C18.2002 7.5878 17.8001 8.27769 17.1953 8.67969C17.1557 8.70925 17.1078 8.74098 17.0498 8.77441L12.9092 11.1602C12.265 11.5314 11.981 12.311 12.2354 13.0088C12.4996 13.7328 13.1889 14.2147 13.9609 14.2148L15.501 14.1992C15.5171 14.1989 15.5336 14.1992 15.5498 14.1992C17.0132 14.1992 18.2 15.3911 18.2002 16.8613C18.2002 18.3232 17.0271 19.5348 15.5752 19.5488H14.6973C13.2986 19.5487 12.0475 18.6802 11.5615 17.3711L11.1348 16.2217C10.559 14.6708 8.83318 13.8796 7.2793 14.4541C7.12094 14.5127 6.96755 14.5846 6.82129 14.6689L5.0498 15.6992C4.94236 15.7611 4.83425 15.8061 4.72656 15.835C4.50598 15.9092 4.26959 15.9492 4.02441 15.9492C2.79579 15.949 1.79986 14.9368 1.7998 13.7139C1.79981 12.8513 2.29539 12.1039 3.01855 11.7383L7.03125 9.38184C7.78999 8.94454 8.12488 8.0259 7.8252 7.2041C7.514 6.35119 6.70147 5.7832 5.79199 5.7832L4.47461 5.79883H4.4502C2.98664 5.79883 1.79981 4.58175 1.7998 3.11133C1.79998 1.70926 2.87887 0.560598 4.24805 0.457031C4.29235 0.452039 4.33522 0.449219 4.375 0.449219H5.28613Z" fill="#2B89F8"/>
</svg>
