<svg width="410" height="478" viewBox="0 0 410 478" fill="none" xmlns="http://www.w3.org/2000/svg">
<path d="M87.1602 0C121.903 0 152.984 21.5572 165.099 54.0576L177.959 88.5508C193.368 129.887 239.43 150.928 280.843 135.547C285.029 133.992 289.077 132.089 292.945 129.86L324.598 111.62C327.136 110.158 329.775 109.027 332.464 108.213C339.188 105.342 346.595 103.75 354.375 103.75C385.096 103.75 410 128.537 410 159.113C410 178.471 400.015 195.716 384.895 205.766C383.905 206.505 382.702 207.289 381.25 208.125L277.73 267.774C261.625 277.056 254.521 296.541 260.881 313.984C267.485 332.091 284.728 344.144 304.034 344.145L342.535 343.761C342.939 343.753 343.344 343.75 343.75 343.75C380.339 343.75 410 373.551 410 410.312C410 446.86 380.68 477.146 344.383 477.495L344.375 477.5H322.442C287.473 477.5 256.197 455.774 244.048 423.043L233.385 394.312C218.993 355.538 175.836 335.749 136.987 350.112C133.027 351.577 129.197 353.372 125.539 355.48L81.25 381.25C78.5637 382.798 75.8574 383.912 73.165 384.633C67.6505 386.489 61.7542 387.5 55.625 387.5C24.9042 387.5 0 362.19 0 331.613C0.000206559 310.047 12.3902 291.362 30.4717 282.222L130.796 223.305C149.764 212.372 158.133 189.424 150.641 168.879C142.863 147.552 122.551 133.356 99.8115 133.356L66.875 133.75C66.7998 133.75 66.7236 133.747 66.6475 133.746C66.5151 133.747 66.3826 133.75 66.25 133.75C29.6613 133.75 0.000279212 103.322 0 66.5615C0 31.5034 26.9771 2.77522 61.2129 0.189453C62.3204 0.0646455 63.3804 0 64.375 0H87.1602Z" fill="white"/>
</svg>
